EMG
version=1
nRows=20
nColumns=17
inDegrees=no
endheader
time	_right_gast_med	_right_glut_max	_left_gast_med	_left_glut_max	_right_glut_med	_right_bic_fem	_right_rect_fem	_right_vast_lat	_right_vast_med	_right_tens_fasc_lat	_left_glut_med	_left_bic_fem	_left_rect_fem	_left_vast_lat	_left_vast_med	_left_tens_fasc_lat
      0.00000000	      0.04328082	      0.00559531	     -0.00878256	     -2.10397029	      0.02673777	      0.02434615	      0.01327004	      0.01515808	     -0.00779295	      0.02278200	      0.00815927	      0.01890172	      0.01459292	     -0.01017075	      0.02199042	      0.01472405
      0.01000000	      0.01968625	      0.00520710	     -0.01746971	     -0.33965778	      0.02271543	      0.02316818	      0.01506958	      0.01611909	     -0.01186688	      0.01306733	      0.00205543	      0.01995054	      0.01671133	     -0.02773434	      0.10418286	      0.01478717
      0.02000000	      0.00098386	     -0.00547829	     -0.06659140	      0.74106330	      0.01957725	      0.02486114	      0.01271714	      0.02419655	     -0.01068663	      0.00236547	     -0.00485555	      0.01628324	      0.02013177	     -0.00634954	      0.10232259	      0.00583939
      0.03000000	     -0.00755839	     -0.01173942	      0.02030700	      0.94568217	      0.01044743	      0.02156503	      0.01466778	      0.04770664	     -0.01474362	      0.00583220	     -0.00446385	      0.00400236	      0.01678605	      0.02049198	      0.04331982	      0.00663334
      0.04000000	     -0.00590877	     -0.01040675	      0.10442779	      0.87464464	      0.00359407	      0.02218169	      0.02295681	      0.03373463	     -0.01513742	      0.01326090	      0.00085134	      0.01603936	      0.00634077	      0.02330736	     -0.01979906	      0.02395903
      0.05000000	      0.00370630	     -0.00192746	      0.05052175	      0.73890948	      0.00296919	      0.02738969	      0.01092251	      0.00724914	     -0.01399743	      0.01560165	      0.01202194	      0.03795407	     -0.00429231	      0.01458986	     -0.02764378	      0.03756466
      0.06000000	      0.00569999	      0.00807879	     -0.01346219	      0.58347690	      0.00201104	      0.02119859	     -0.00277919	     -0.00141128	     -0.05619095	      0.01884221	      0.02055106	      0.02176090	     -0.00581275	      0.00945731	      0.01567387	      0.03856789
      0.07000000	      0.00265474	      0.02099812	     -0.06941305	      0.44752789	      0.00214764	      0.01234525	     -0.00240740	      0.01345547	     -0.21553217	      0.02401200	      0.02295009	      0.00167556	      0.00486548	      0.00627012	      0.03277250	      0.03664178
      0.08000000	     -0.00087098	      0.03136483	     -0.00760726	      0.34058961	      0.00015831	      0.00169787	      0.02918316	      0.01730460	     -0.45325023	      0.02722275	      0.01868268	     -0.01248334	      0.01433178	      0.00947338	     -0.00990301	      0.02633351
      0.09000000	     -0.01432844	      0.02746081	      0.03261027	      0.24205485	     -0.00241252	      0.00870223	      0.09506779	      0.02728319	     -0.47187757	      0.03616660	      0.01871364	     -0.01846346	      0.01346387	      0.01887557	     -0.05944396	      0.01229841
      0.10000000	     -0.02133415	     -0.00280495	     -0.03442688	      0.15225896	     -0.00344396	      0.02850506	      0.06293087	      0.08097462	     -0.03391027	      0.04737816	      0.01337670	      0.00176283	      0.00615792	      0.01434541	     -0.05339894	      0.00277139
      0.11000000	     -0.01837827	     -0.03505609	      0.03450347	      0.08865918	     -0.00411513	      0.01152679	     -0.04882042	      0.06454675	      0.43643203	      0.05016654	      0.00365177	      0.01122710	      0.00509113	      0.01055723	      0.00087286	      0.00706644
      0.12000000	     -0.00989637	     -0.03288804	      0.04532415	      0.04105404	     -0.00127891	     -0.00426521	     -0.08780253	     -0.00393127	      0.52349907	      0.03807358	      0.00609309	      0.00492937	      0.00798913	      0.01190657	      0.02956020	      0.00971875
      0.13000000	     -0.00279929	     -0.00532761	     -0.01896955	     -0.00825079	      0.00309080	      0.00703034	     -0.06140834	     -0.04950833	      0.35164887	     -0.00284005	      0.00932124	      0.00212888	      0.00513742	      0.01098066	      0.02480782	     -0.00522186
      0.14000000	     -0.01085068	      0.01708587	     -0.01426440	     -0.06102285	      0.00409802	     -0.00689295	     -0.03425023	     -0.03841293	      0.17164114	     -0.04526370	      0.00660824	      0.00413557	      0.00998040	      0.01573222	      0.02094685	     -0.01425705
      0.15000000	     -0.02007363	      0.02843967	     -0.00317206	     -0.11562449	      0.00455049	     -0.01718584	     -0.00225014	     -0.03112006	      0.11606619	     -0.04829253	      0.00363609	      0.01813652	      0.01194253	      0.01352103	      0.02046268	     -0.01410682
      0.16000000	     -0.00547609	      0.03443049	      0.01309533	     -0.15732974	      0.00366029	     -0.01689008	      0.01252781	     -0.04152599	      0.14490360	     -0.02241432	      0.00607584	      0.02554158	      0.00733227	      0.00619160	      0.02341360	     -0.02388997
      0.17000000	     -0.00494667	      0.03407953	      0.03357729	     -0.17770487	      0.01281240	     -0.03407049	      0.03049000	     -0.02629887	      0.15529676	      0.00677860	      0.00975435	      0.02172422	      0.00975354	      0.00340044	      0.02655244	     -0.03306063
      0.18000000	     -0.01790064	      0.03709661	      0.02960540	     -0.18349886	      0.01799410	     -0.01759812	      0.05130208	     -0.01876577	      0.13062763	      0.01581530	      0.00976860	      0.00933296	      0.01345728	      0.00818880	      0.02995469	     -0.03077767
      0.19000000	      0.01485303	      0.03636260	      0.01329953	     -0.16734990	      0.00170240	      0.01620929	      0.03765893	     -0.03138138	     -0.01786102	     -0.00153815	      0.01035538	     -0.00754690	      0.01328806	      0.01793546	      0.03069814	     -0.02772195
